<svg width="149" height="50" viewBox="0 0 149 50" fill="none" xmlns="http://www.w3.org/2000/svg">
<rect width="149" height="50" rx="10" fill="#F78B3B"/>
<path d="M32.04 32C31.9067 32 31.7933 31.9533 31.7 31.86C31.6067 31.7667 31.56 31.6533 31.56 31.52V18.5C31.56 18.3533 31.6 18.2333 31.68 18.14C31.7733 18.0467 31.8933 18 32.04 18H37.84C39.4 18 40.56 18.3467 41.32 19.04C42.0933 19.72 42.48 20.6533 42.48 21.84C42.48 22.5333 42.3067 23.1267 41.96 23.62C41.6267 24.1 41.2333 24.4467 40.78 24.66C41.34 24.9133 41.8067 25.3267 42.18 25.9C42.5667 26.4733 42.76 27.1267 42.76 27.86C42.76 29.1 42.34 30.1 41.5 30.86C40.6733 31.62 39.5067 32 38 32H32.04ZM37.48 23.74C38.1733 23.74 38.7 23.5733 39.06 23.24C39.42 22.9067 39.6 22.46 39.6 21.9C39.6 21.3267 39.42 20.8867 39.06 20.58C38.7 20.26 38.1733 20.1 37.48 20.1H34.34V23.74H37.48ZM37.68 29.88C38.3733 29.88 38.9133 29.6933 39.3 29.32C39.6867 28.9333 39.88 28.4467 39.88 27.86C39.88 27.26 39.6867 26.7733 39.3 26.4C38.9133 26.0133 38.3733 25.82 37.68 25.82H34.34V29.88H37.68ZM54.6109 31.38C54.6776 31.4467 54.7109 31.5333 54.7109 31.64C54.7109 31.7467 54.6709 31.8333 54.5909 31.9C54.5109 31.9667 54.4109 32 54.2909 32H52.2709C52.0576 32 51.8709 31.9 51.7109 31.7L49.1109 27.78H47.6309V31.52C47.6309 31.6533 47.5843 31.7667 47.4909 31.86C47.3976 31.9533 47.2843 32 47.1509 32H45.5109C45.3776 32 45.2643 31.9533 45.1709 31.86C45.0776 31.7667 45.0309 31.6533 45.0309 31.52V22.08C45.0309 21.9467 45.0776 21.8333 45.1709 21.74C45.2643 21.6467 45.3776 21.6 45.5109 21.6H47.1509C47.2843 21.6 47.3976 21.6467 47.4909 21.74C47.5843 21.8333 47.6309 21.9467 47.6309 22.08V25.66H49.1109L51.5109 21.92C51.5909 21.8133 51.6709 21.7333 51.7509 21.68C51.8309 21.6267 51.9376 21.6 52.0709 21.6H53.8509C53.9843 21.6 54.0909 21.6333 54.1709 21.7C54.2509 21.7667 54.2909 21.8533 54.2909 21.96C54.2909 22.04 54.2576 22.1267 54.1909 22.22L51.3309 26.62L54.6109 31.38ZM56.1367 32C56.0034 32 55.8834 31.9533 55.7767 31.86C55.6834 31.7533 55.6367 31.6333 55.6367 31.5V30.26C55.6367 30.1267 55.6767 30.02 55.7567 29.94C55.8367 29.8467 55.9501 29.7933 56.0967 29.78C56.6834 29.7533 57.1034 29.3533 57.3567 28.58C57.6234 27.7933 57.7567 26.5267 57.7567 24.78V22.08C57.7567 21.9333 57.8034 21.82 57.8967 21.74C57.9901 21.6467 58.1034 21.6 58.2367 21.6H65.3367C65.4701 21.6 65.5834 21.6467 65.6767 21.74C65.7701 21.8333 65.8167 21.9467 65.8167 22.08V31.52C65.8167 31.6533 65.7701 31.7667 65.6767 31.86C65.5834 31.9533 65.4701 32 65.3367 32H63.6767C63.5434 32 63.4301 31.9533 63.3367 31.86C63.2434 31.7667 63.1967 31.6533 63.1967 31.52V23.72H60.2567V25.06C60.2567 26.7933 60.1234 28.16 59.8567 29.16C59.6034 30.16 59.1767 30.8867 58.5767 31.34C57.9901 31.78 57.1767 32 56.1367 32ZM82.9475 25.92C82.9608 26.08 82.9675 26.3733 82.9675 26.8C82.9675 27.2267 82.9608 27.52 82.9475 27.68C82.8808 29.08 82.4208 30.1867 81.5675 31C80.7142 31.8 79.5075 32.2 77.9475 32.2C76.4008 32.2 75.2008 31.8067 74.3475 31.02C73.5075 30.22 73.0408 29.1333 72.9475 27.76H71.1275V31.52C71.1275 31.6533 71.0808 31.7667 70.9875 31.86C70.9075 31.9533 70.7942 32 70.6475 32H68.9875C68.8542 32 68.7408 31.9533 68.6475 31.86C68.5542 31.7667 68.5075 31.6533 68.5075 31.52V22.08C68.5075 21.9467 68.5542 21.8333 68.6475 21.74C68.7408 21.6467 68.8542 21.6 68.9875 21.6H70.6475C70.7942 21.6 70.9075 21.6467 70.9875 21.74C71.0808 21.82 71.1275 21.9333 71.1275 22.08V25.66H72.9675C73.0875 24.34 73.5742 23.3 74.4275 22.54C75.2942 21.78 76.4675 21.4 77.9475 21.4C79.4808 21.4 80.6808 21.8067 81.5475 22.62C82.4142 23.4333 82.8808 24.5333 82.9475 25.92ZM80.2275 27.58C80.2408 27.4467 80.2475 27.1867 80.2475 26.8C80.2475 26.4133 80.2408 26.1533 80.2275 26.02C80.1875 25.1533 79.9742 24.5 79.5875 24.06C79.2008 23.6067 78.6542 23.38 77.9475 23.38C77.2408 23.38 76.6942 23.6067 76.3075 24.06C75.9208 24.5 75.7075 25.1533 75.6675 26.02L75.6475 26.8L75.6675 27.58C75.7075 28.4467 75.9208 29.1067 76.3075 29.56C76.6942 30 77.2408 30.22 77.9475 30.22C78.6542 30.22 79.2008 30 79.5875 29.56C79.9742 29.1067 80.1875 28.4467 80.2275 27.58ZM91.7672 32C91.6339 32 91.5205 31.9533 91.4272 31.86C91.3339 31.7667 91.2872 31.6533 91.2872 31.52V28.12C90.6339 28.6933 89.6739 28.98 88.4072 28.98C87.1539 28.98 86.2072 28.6867 85.5672 28.1C84.9272 27.5 84.6072 26.5667 84.6072 25.3V22.08C84.6072 21.9333 84.6539 21.82 84.7472 21.74C84.8405 21.6467 84.9539 21.6 85.0872 21.6H86.8072C86.9405 21.6 87.0539 21.6467 87.1472 21.74C87.2405 21.8333 87.2872 21.9467 87.2872 22.08V25.16C87.2872 25.6933 87.4272 26.08 87.7072 26.32C88.0005 26.5467 88.4672 26.66 89.1072 26.66C90.5605 26.66 91.2872 26.2667 91.2872 25.48V22.08C91.2872 21.9333 91.3339 21.82 91.4272 21.74C91.5205 21.6467 91.6339 21.6 91.7672 21.6H93.5672C93.7005 21.6 93.8139 21.6467 93.9072 21.74C94.0005 21.8333 94.0472 21.9467 94.0472 22.08V31.52C94.0472 31.6533 94.0005 31.7667 93.9072 31.86C93.8139 31.9533 93.7005 32 93.5672 32H91.7672ZM106.23 21.6C106.35 21.6 106.456 21.6467 106.55 21.74C106.643 21.82 106.69 21.92 106.69 22.04V31.52C106.69 31.6533 106.643 31.7667 106.55 31.86C106.456 31.9533 106.343 32 106.21 32H104.55C104.416 32 104.303 31.9533 104.21 31.86C104.116 31.7667 104.07 31.6533 104.07 31.52V25.1L99.2697 31.68C99.1497 31.8933 98.9697 32 98.7297 32H97.2097C97.0897 32 96.983 31.96 96.8897 31.88C96.7964 31.7867 96.7497 31.6733 96.7497 31.54V22.08C96.7497 21.9467 96.7964 21.8333 96.8897 21.74C96.983 21.6467 97.0964 21.6 97.2297 21.6H98.8897C99.0364 21.6 99.1497 21.6467 99.2297 21.74C99.323 21.82 99.3697 21.9333 99.3697 22.08V28.52L104.17 21.92C104.316 21.7067 104.496 21.6 104.71 21.6H106.23ZM112.391 32C112.257 32 112.144 31.9533 112.051 31.86C111.957 31.7667 111.911 31.6533 111.911 31.52V23.72H108.651C108.517 23.72 108.404 23.6733 108.311 23.58C108.217 23.4867 108.171 23.3667 108.171 23.22V22.08C108.171 21.9333 108.217 21.82 108.311 21.74C108.404 21.6467 108.517 21.6 108.651 21.6H117.731C117.877 21.6 117.997 21.6467 118.091 21.74C118.184 21.8333 118.231 21.9467 118.231 22.08V23.22C118.231 23.3533 118.184 23.4733 118.091 23.58C117.997 23.6733 117.877 23.72 117.731 23.72H114.491V31.52C114.491 31.6533 114.444 31.7667 114.351 31.86C114.271 31.9533 114.157 32 114.011 32H112.391Z" fill="white"/>
</svg>
