<svg xmlns="http://www.w3.org/2000/svg" width="89" height="45" fill="none"><rect width="89" height="45" fill="#7296EC" rx="10"/><path fill="#fff" d="M21.632 28a.37.37 0 0 1-.272-.112.37.37 0 0 1-.112-.272V17.2c0-.117.032-.213.096-.288a.39.39 0 0 1 .288-.112h4.64c1.248 0 2.176.277 2.784.832.619.544.928 1.29.928 2.24 0 .555-.139 1.03-.416 1.424-.267.384-.581.661-.944.832.448.203.821.533 1.12.992.31.459.464.981.464 1.568 0 .992-.336 1.792-1.008 2.4-.661.608-1.595.912-2.8.912h-4.768Zm4.352-6.608c.555 0 .976-.133 1.264-.4.288-.267.432-.624.432-1.072 0-.459-.144-.81-.432-1.056-.288-.256-.71-.384-1.264-.384h-2.512v2.912h2.512Zm.16 4.912c.555 0 .987-.15 1.296-.448.31-.31.464-.699.464-1.168 0-.48-.155-.87-.464-1.168-.31-.31-.741-.464-1.296-.464h-2.672v3.248h2.672Zm9.56 1.856c-1.247 0-2.213-.32-2.895-.96-.683-.65-1.05-1.536-1.104-2.656l-.016-.704.016-.704c.053-1.11.426-1.99 1.12-2.64.693-.65 1.653-.976 2.88-.976 1.226 0 2.186.325 2.88.976.693.65 1.066 1.53 1.12 2.64.01.128.016.363.016.704 0 .341-.006.576-.016.704-.054 1.12-.422 2.005-1.104 2.656-.683.64-1.648.96-2.896.96Zm0-1.584c.566 0 1.003-.176 1.313-.528.31-.363.48-.89.512-1.584.01-.107.016-.315.016-.624 0-.31-.006-.517-.016-.624-.032-.693-.203-1.216-.512-1.568-.31-.363-.747-.544-1.312-.544-.566 0-1.003.181-1.312.544-.31.352-.48.875-.512 1.568l-.016.624.016.624c.032.693.202 1.221.512 1.584.31.352.746.528 1.312.528Zm13.373-6.896c.096 0 .182.037.257.112a.303.303 0 0 1 .111.24v7.584a.37.37 0 0 1-.111.272.37.37 0 0 1-.273.112h-1.328a.37.37 0 0 1-.271-.112.37.37 0 0 1-.113-.272V22.48l-3.84 5.264a.466.466 0 0 1-.431.256H41.86a.382.382 0 0 1-.255-.096.37.37 0 0 1-.113-.272v-7.568a.37.37 0 0 1 .112-.272.37.37 0 0 1 .273-.112h1.328c.117 0 .207.037.271.112a.339.339 0 0 1 .113.272v5.152l3.84-5.28c.117-.17.26-.256.431-.256h1.217Zm-3.52-1.088c-.906 0-1.568-.197-1.983-.592-.416-.405-.624-.923-.624-1.552 0-.085.026-.155.08-.208a.275.275 0 0 1 .224-.096h.912c.096 0 .17.032.224.096.053.053.08.123.08.208 0 .608.362.912 1.087.912.726 0 1.088-.304 1.088-.912 0-.085.027-.155.08-.208a.275.275 0 0 1 .224-.096h.928c.096 0 .171.032.224.096.054.053.08.123.08.208 0 .63-.213 1.147-.64 1.552-.415.395-1.077.592-1.983.592ZM54.007 28a.37.37 0 0 1-.273-.112.37.37 0 0 1-.112-.272v-6.24h-2.608a.37.37 0 0 1-.272-.112.39.39 0 0 1-.112-.288v-.912c0-.117.038-.208.112-.272a.37.37 0 0 1 .272-.112h7.264a.39.39 0 0 1 .288.112.37.37 0 0 1 .112.272v.912a.426.426 0 0 1-.112.288.39.39 0 0 1-.288.112h-2.592v6.24a.37.37 0 0 1-.112.272.339.339 0 0 1-.272.112h-1.296Zm13.524-8.32c.096 0 .181.037.256.112a.303.303 0 0 1 .112.24v7.584a.37.37 0 0 1-.112.272.37.37 0 0 1-.272.112h-1.328a.37.37 0 0 1-.272-.112.37.37 0 0 1-.112-.272V22.48l-3.84 5.264a.466.466 0 0 1-.432.256h-1.216a.382.382 0 0 1-.256-.096.37.37 0 0 1-.112-.272v-7.568a.37.37 0 0 1 .112-.272.37.37 0 0 1 .272-.112h1.328c.117 0 .208.037.272.112a.339.339 0 0 1 .112.272v5.152l3.84-5.28c.117-.17.261-.256.432-.256h1.216Z"/></svg>