<svg xmlns="http://www.w3.org/2000/svg" width="275" height="45" fill="none"><rect width="275" height="45" fill="#fff" rx="22.5"/><path fill="#8D8D8D" fill-rule="evenodd" d="M19.167 22.167c0-2.758 2.242-5 5-5 2.757 0 5 2.242 5 5 0 2.757-2.243 5-5 5-2.758 0-5-2.243-5-5Zm13.089 6.91-2.83-2.83a6.626 6.626 0 0 0 1.407-4.08 6.674 6.674 0 0 0-6.666-6.667 6.674 6.674 0 0 0-6.667 6.667 6.674 6.674 0 0 0 6.667 6.666c1.538 0 2.952-.529 4.08-1.406l2.83 2.829a.831.831 0 0 0 1.179 0 .832.832 0 0 0 0-1.178Z" clip-rule="evenodd"/><mask id="a" width="16" height="16" x="17" y="15" maskUnits="userSpaceOnUse" style="mask-type:luminance"><path fill="#fff" fill-rule="evenodd" d="M19.167 22.167c0-2.758 2.242-5 5-5 2.757 0 5 2.242 5 5 0 2.757-2.243 5-5 5-2.758 0-5-2.243-5-5Zm13.089 6.91-2.83-2.83a6.626 6.626 0 0 0 1.407-4.08 6.674 6.674 0 0 0-6.666-6.667 6.674 6.674 0 0 0-6.667 6.667 6.674 6.674 0 0 0 6.667 6.666c1.538 0 2.952-.529 4.08-1.406l2.83 2.829a.831.831 0 0 0 1.179 0 .832.832 0 0 0 0-1.178Z" clip-rule="evenodd"/></mask><g mask="url(#a)"><path fill="#8D8D8D" d="M15 13h20v20H15z"/></g><path fill="#8D8D8D" d="M42.54 28a.353.353 0 0 1-.238-.084.353.353 0 0 1-.084-.238v-9.142c0-.103.028-.182.084-.238a.324.324 0 0 1 .238-.098h6.902c.103 0 .182.033.238.098a.296.296 0 0 1 .098.238v9.142a.324.324 0 0 1-.098.238.353.353 0 0 1-.238.084h-.714a.353.353 0 0 1-.238-.084.353.353 0 0 1-.084-.238V19.46H43.59v8.218a.324.324 0 0 1-.098.238.353.353 0 0 1-.238.084h-.714Zm12.472.14c-1.026 0-1.825-.29-2.394-.868-.56-.579-.858-1.349-.896-2.31l-.014-.602.014-.602c.038-.952.34-1.717.91-2.296.57-.588 1.363-.882 2.38-.882s1.81.294 2.38.882c.57.579.873 1.344.91 2.296.01.103.014.303.014.602s-.005.5-.014.602c-.037.961-.34 1.731-.91 2.31-.56.579-1.353.868-2.38.868Zm0-1.078c.588 0 1.05-.187 1.386-.56.345-.373.532-.91.56-1.61.01-.093.014-.27.014-.532 0-.261-.005-.439-.014-.532-.028-.7-.215-1.237-.56-1.61-.336-.373-.798-.56-1.386-.56-.588 0-1.054.187-1.4.56-.345.373-.527.91-.546 1.61l-.014.532.014.532c.019.7.2 1.237.546 1.61.346.373.812.56 1.4.56Zm11.245-6.342c.075 0 .14.028.196.084a.252.252 0 0 1 .098.196v6.678a.324.324 0 0 1-.098.238.303.303 0 0 1-.224.084h-.658a.353.353 0 0 1-.238-.084.353.353 0 0 1-.084-.238v-5.082l-3.878 5.194c-.102.14-.224.21-.364.21h-.63a.334.334 0 0 1-.224-.084.317.317 0 0 1-.084-.21v-6.664c0-.093.028-.168.084-.224a.324.324 0 0 1 .238-.098h.672a.28.28 0 0 1 .224.098.28.28 0 0 1 .098.224v5.054l3.864-5.166c.103-.14.224-.21.364-.21h.644Zm5.283 7.42c-.998 0-1.782-.28-2.352-.84-.56-.57-.858-1.363-.895-2.38l-.015-.56.014-.56c.038-1.017.337-1.806.897-2.366.569-.57 1.353-.854 2.352-.854.672 0 1.24.121 1.708.364.466.243.812.541 1.035.896.234.355.36.71.378 1.064a.245.245 0 0 1-.084.224.353.353 0 0 1-.237.084h-.672c-.094 0-.164-.019-.21-.056a.575.575 0 0 1-.14-.224c-.16-.448-.383-.765-.672-.952-.29-.196-.654-.294-1.093-.294-.578 0-1.04.182-1.386.546-.336.355-.518.9-.546 1.638l-.013.504.014.476c.027.747.21 1.297.545 1.652.336.355.798.532 1.386.532.44 0 .803-.093 1.093-.28.289-.196.513-.518.671-.966a.575.575 0 0 1 .14-.224c.047-.047.117-.07.21-.07h.672c.094 0 .173.033.239.098.065.056.093.13.084.224-.02.345-.145.7-.379 1.064-.224.355-.569.653-1.035.896-.458.243-1.027.364-1.709.364Zm10.861-.546a.28.28 0 0 1 .07.182.212.212 0 0 1-.084.168.306.306 0 0 1-.196.056h-.854c-.15 0-.27-.07-.364-.21l-2.03-2.926h-1.316v2.814a.324.324 0 0 1-.098.238.303.303 0 0 1-.224.084h-.658a.353.353 0 0 1-.238-.084.353.353 0 0 1-.084-.238v-6.636c0-.093.028-.168.084-.224a.324.324 0 0 1 .238-.098h.658a.28.28 0 0 1 .224.098.28.28 0 0 1 .098.224v2.688h1.288l1.876-2.8c.112-.14.238-.21.378-.21h.728c.084 0 .154.023.21.07a.176.176 0 0 1 .084.154c0 .047-.023.103-.07.168l-2.086 3.094 2.366 3.388Z"/></svg>