<svg xmlns="http://www.w3.org/2000/svg" width="70" height="36" fill="none"><rect width="70" height="36" fill="#DCE6FF" rx="18"/><circle cx="18" cy="18" r="15" fill="#fff"/><path fill="#000" d="M17.397 13.9c.07 0 .13.026.182.078a.25.25 0 0 1 .078.182c0 .07-.013.13-.039.182l-2.652 6.006c-.303.685-.576 1.209-.819 1.573a2.452 2.452 0 0 1-.832.806c-.32.182-.737.273-1.248.273h-.52a.328.328 0 0 1-.221-.078.328.328 0 0 1-.078-.221v-.546c0-.087.026-.16.078-.221a.3.3 0 0 1 .221-.091h.455c.347 0 .633-.104.858-.312.234-.217.472-.576.715-1.079l-3.367-6.136a.324.324 0 0 1-.039-.143c0-.07.026-.13.078-.182a.273.273 0 0 1 .195-.091h.741c.13 0 .234.074.312.221l2.704 4.927 2.171-4.927a.29.29 0 0 1 .13-.156.33.33 0 0 1 .195-.065h.702Zm4.132 9.23c-.684 0-1.274-.1-1.768-.299-.485-.208-.862-.485-1.13-.832a2.309 2.309 0 0 1-.469-1.183v-.026c0-.07.026-.121.078-.156a.294.294 0 0 1 .195-.065h.65c.096 0 .174.022.234.065.06.035.104.104.13.208.104.364.334.654.69.871.355.208.814.312 1.377.312.624 0 1.144-.143 1.56-.429.425-.286.637-.676.637-1.17 0-.511-.186-.906-.559-1.183-.364-.286-.862-.429-1.495-.429h-.923a.328.328 0 0 1-.22-.078.328.328 0 0 1-.079-.221v-.455c0-.095.026-.169.078-.221a.3.3 0 0 1 .221-.091h.871c.555 0 .993-.121 1.313-.364.33-.243.494-.611.494-1.105 0-.425-.177-.763-.533-1.014-.355-.26-.797-.39-1.326-.39-.546 0-.992.1-1.339.299-.346.2-.563.503-.65.91-.043.173-.147.26-.312.26h-.702a.31.31 0 0 1-.208-.078.226.226 0 0 1-.065-.195c.06-.693.373-1.248.936-1.664.564-.425 1.352-.637 2.366-.637.659 0 1.222.113 1.69.338.477.225.832.524 1.066.897.243.373.364.776.364 1.209 0 .927-.346 1.595-1.04 2.002.45.225.789.533 1.014.923.226.381.338.819.338 1.313 0 .529-.143.997-.429 1.404-.286.399-.693.71-1.222.936-.52.225-1.13.338-1.833.338Z"/><path fill="#A6A6A6" d="M42.43 23a.328.328 0 0 1-.221-.078.328.328 0 0 1-.078-.221v-8.489c0-.095.026-.169.078-.221a.3.3 0 0 1 .221-.091h3.302c.98 0 1.75.238 2.314.715.563.477.845 1.166.845 2.067 0 .901-.282 1.59-.845 2.067-.555.468-1.326.702-2.314.702h-2.301v3.25a.3.3 0 0 1-.091.221.328.328 0 0 1-.221.078h-.689Zm3.237-4.641c.633 0 1.11-.143 1.43-.429.33-.286.494-.702.494-1.248s-.16-.962-.481-1.248c-.32-.295-.802-.442-1.443-.442h-2.249v3.367h2.249Zm11.07-4.459c.07 0 .13.026.183.078a.25.25 0 0 1 .078.182c0 .07-.013.13-.04.182l-2.651 6.006c-.303.685-.577 1.209-.82 1.573a2.452 2.452 0 0 1-.831.806c-.32.182-.737.273-1.248.273h-.52a.328.328 0 0 1-.221-.078.328.328 0 0 1-.078-.221v-.546c0-.087.026-.16.078-.221a.3.3 0 0 1 .22-.091h.456c.346 0 .632-.104.858-.312.234-.217.472-.576.715-1.079l-3.367-6.136a.324.324 0 0 1-.04-.143c0-.07.027-.13.079-.182a.273.273 0 0 1 .195-.091h.74c.13 0 .235.074.313.221l2.704 4.927 2.17-4.927a.291.291 0 0 1 .13-.156.33.33 0 0 1 .196-.065h.702Z"/></svg>